<?xml version="1.0" encoding="UTF-8"?>
<svg version="1.1" xmlns="http://www.w3.org/2000/svg" width="16" height="16">
<path d="M0 0 C0 5.28 0 10.56 0 16 C-5.28 16 -10.56 16 -16 16 C-16.37083511 5.49300527 -16.37083511 5.49300527 -14.66015625 3.21875 C-9.97486433 -0.22080548 -5.76684117 0 0 0 Z M-11 4 C-10.67 4.66 -10.34 5.32 -10 6 C-9.34 5.34 -8.68 4.68 -8 4 C-8.99 4 -9.98 4 -11 4 Z M-4 8 C-4.33 8.66 -4.66 9.32 -5 10 C-3.68 9.34 -2.36 8.68 -1 8 C-1.99 8 -2.98 8 -4 8 Z " fill="#DE384F" transform="translate(16,0)"/>
<path d="M0 0 C-0.66 1.65 -1.32 3.3 -2 5 C-0.02 4.34 1.96 3.68 4 3 C4 4.65 4 6.3 4 8 C-1.28 8 -6.56 8 -12 8 C-9.25413388 1.13533469 -7.38048561 -0.50321493 0 0 Z " fill="#DD2F44" transform="translate(12,8)"/>
<path d="M0 0 C0 2.31 0 4.62 0 7 C-1.98 7.66 -3.96 8.32 -6 9 C-5.67 8.01 -5.34 7.02 -5 6 C-4.34 5.67 -3.68 5.34 -3 5 C-7.59583114 4.50370221 -7.59583114 4.50370221 -11.80078125 6.11328125 C-13.25599455 7.34621853 -14.63479157 8.66808933 -16 10 C-15.62005832 7.24542282 -15.1926367 6.17979426 -13.125 4.25 C-11 3 -11 3 -8 3 C-8 2.34 -8 1.68 -8 1 C-1.125 0 -1.125 0 0 0 Z " fill="#EE9CAB" transform="translate(16,4)"/>
<path d="M0 0 C2.31 0 4.62 0 7 0 C6.67 1.65 6.34 3.3 6 5 C3.69 5 1.38 5 -1 5 C-0.67 3.35 -0.34 1.7 0 0 Z " fill="#DE3349" transform="translate(9,0)"/>
<path d="M0 0 C0.763125 0.0825 1.52625 0.165 2.3125 0.25 C2.3125 0.91 2.3125 1.57 2.3125 2.25 C-0.3275 2.91 -2.9675 3.57 -5.6875 4.25 C-3.34903846 0.31153846 -3.34903846 0.31153846 0 0 Z " fill="#F4B4C1" transform="translate(5.6875,1.75)"/>
</svg>
